<svg xmlns="http://www.w3.org/2000/svg" width="63.832" height="33.616" viewBox="0 0 63.832 33.616">
  <path id="Path_1" data-name="Path 1" d="M62.7,2.647a5.823,5.823,0,0,0-2.424,10.1,11.549,11.549,0,0,1-9.424,4.847,11.478,11.478,0,0,1-10.367-6.53,5.83,5.83,0,0,0,3.3-5.184A5.867,5.867,0,0,0,32.2,4.532,5.788,5.788,0,0,0,35.7,11.2,11.54,11.54,0,0,1,15.91,12.543,5.73,5.73,0,0,0,17.862,8.3,5.869,5.869,0,0,0,6.283,6.956a5.909,5.909,0,0,0,5.251,7.2L18.67,32.134a2.339,2.339,0,0,0,2.154,1.481h34.67a2.341,2.341,0,0,0,2.155-1.481l7.135-17.975A5.862,5.862,0,1,0,62.7,2.647Z" transform="translate(-6.136 0.001)"/>
</svg>
